<svg width="1080" height="1080" viewBox="0 0 1080 1080" fill="none" xmlns="http://www.w3.org/2000/svg">
<rect width="1080" height="1080" rx="292" fill="#805D93"/>
<path d="M405.856 620.682L466.873 614.841V667.78L405.856 620.682Z" fill="#F26156"/>
<path d="M368.328 381.215L437.421 374.629C437.421 374.629 434.439 444.468 433.693 442.231C433.072 439.995 368.328 381.215 368.328 381.215Z" fill="#F26156"/>
<path d="M452.831 639.074L405.857 620.682L531.244 980.814L610.155 971.991L687.327 689.03L665.207 672.875L729.951 481.128L670.426 428.935L689.439 356.983L729.951 229.855L473.459 99L339 112.173L422.012 409.052L368.327 381.215L452.831 639.074Z" fill="#FFBF47"/>
<path d="M339 112.173L597.604 243.028L729.951 229.855L473.459 99L339 112.173Z" fill="#F26156"/>
<path d="M665.206 672.875L534.475 686.917L553.612 702.327L687.326 689.03L665.206 672.875Z" fill="#F26156"/>
<path d="M604.688 495.791C645.249 495.791 678.131 462.91 678.131 422.348C678.131 381.787 645.249 348.905 604.688 348.905C564.126 348.905 531.245 381.787 531.245 422.348C531.245 462.91 564.126 495.791 604.688 495.791Z" fill="white"/>
<path d="M706.091 484.731C746.652 484.731 779.534 451.85 779.534 411.288C779.534 370.727 746.652 337.845 706.091 337.845C665.529 337.845 632.647 370.727 632.647 411.288C632.647 451.85 665.529 484.731 706.091 484.731Z" fill="white"/>
<path d="M644.329 463.481C667.047 463.481 685.463 445.066 685.463 422.348C685.463 399.631 667.047 381.215 644.329 381.215C621.612 381.215 603.196 399.631 603.196 422.348C603.196 445.066 621.612 463.481 644.329 463.481Z" fill="#071625"/>
<path d="M748.467 452.421C771.184 452.421 789.6 434.006 789.6 411.288C789.6 388.571 771.184 370.155 748.467 370.155C725.75 370.155 707.334 388.571 707.334 411.288C707.334 434.006 725.75 452.421 748.467 452.421Z" fill="#071625"/>
</svg>
